<svg xmlns="http://www.w3.org/2000/svg" width="1100" height="960" viewBox="0 0 1100 960">
<style>
text { font-family: Arial, sans-serif; fill: #24292f; }
.title { font-size: 20px; font-weight: 700; }
.label { font-size: 12px; }
.value { font-size: 11px; }
.axis { stroke: #8c959f; stroke-width: 1; }
.grid { stroke: #d8dee4; stroke-width: 1; }
</style>
<text x="550.0" y="32" text-anchor="middle" class="title">Top 30 SQLite Keywords by Generated Query Coverage (n=10,065)</text>
<line x1="130" y1="60" x2="130" y2="915" class="axis" />
<line x1="130.0" y1="60" x2="130.0" y2="915" class="grid" />
<text x="130.0" y="940" text-anchor="middle" class="value">0</text>
<line x1="290.0" y1="60" x2="290.0" y2="915" class="grid" />
<text x="290.0" y="940" text-anchor="middle" class="value">1,994</text>
<line x1="450.0" y1="60" x2="450.0" y2="915" class="grid" />
<text x="450.0" y="940" text-anchor="middle" class="value">3,988</text>
<line x1="610.0" y1="60" x2="610.0" y2="915" class="grid" />
<text x="610.0" y="940" text-anchor="middle" class="value">5,982</text>
<line x1="770.0" y1="60" x2="770.0" y2="915" class="grid" />
<text x="770.0" y="940" text-anchor="middle" class="value">7,976</text>
<line x1="930.0" y1="60" x2="930.0" y2="915" class="grid" />
<text x="930.0" y="940" text-anchor="middle" class="value">9,970</text>
<text x="120" y="87" text-anchor="end" class="label">CREATE</text>
<rect x="130" y="74" width="800.0" height="18" fill="#287c8e" />
<text x="936.0" y="87" class="value">9,970 (99.1%)</text>
<text x="120" y="115" text-anchor="end" class="label">TABLE</text>
<rect x="130" y="102" width="797.0" height="18" fill="#287c8e" />
<text x="933.0" y="115" class="value">9,933 (98.7%)</text>
<text x="120" y="143" text-anchor="end" class="label">FROM</text>
<rect x="130" y="130" width="726.4" height="18" fill="#287c8e" />
<text x="862.4" y="143" class="value">9,053 (89.9%)</text>
<text x="120" y="171" text-anchor="end" class="label">AS</text>
<rect x="130" y="158" width="710.5" height="18" fill="#287c8e" />
<text x="846.5" y="171" class="value">8,855 (88.0%)</text>
<text x="120" y="199" text-anchor="end" class="label">INSERT</text>
<rect x="130" y="186" width="709.9" height="18" fill="#287c8e" />
<text x="845.9" y="199" class="value">8,847 (87.9%)</text>
<text x="120" y="227" text-anchor="end" class="label">VALUES</text>
<rect x="130" y="214" width="708.5" height="18" fill="#287c8e" />
<text x="844.5" y="227" class="value">8,830 (87.7%)</text>
<text x="120" y="255" text-anchor="end" class="label">INTO</text>
<rect x="130" y="242" width="698.0" height="18" fill="#287c8e" />
<text x="834.0" y="255" class="value">8,699 (86.4%)</text>
<text x="120" y="283" text-anchor="end" class="label">EXISTS</text>
<rect x="130" y="270" width="693.5" height="18" fill="#287c8e" />
<text x="829.5" y="283" class="value">8,643 (85.9%)</text>
<text x="120" y="311" text-anchor="end" class="label">NOT</text>
<rect x="130" y="298" width="692.4" height="18" fill="#287c8e" />
<text x="828.4" y="311" class="value">8,629 (85.7%)</text>
<text x="120" y="339" text-anchor="end" class="label">IF</text>
<rect x="130" y="326" width="690.3" height="18" fill="#287c8e" />
<text x="826.3" y="339" class="value">8,603 (85.5%)</text>
<text x="120" y="367" text-anchor="end" class="label">SELECT</text>
<rect x="130" y="354" width="685.4" height="18" fill="#287c8e" />
<text x="821.4" y="367" class="value">8,542 (84.9%)</text>
<text x="120" y="395" text-anchor="end" class="label">CAST</text>
<rect x="130" y="382" width="634.5" height="18" fill="#287c8e" />
<text x="770.5" y="395" class="value">7,908 (78.6%)</text>
<text x="120" y="423" text-anchor="end" class="label">WHERE</text>
<rect x="130" y="410" width="551.5" height="18" fill="#287c8e" />
<text x="687.5" y="423" class="value">6,873 (68.3%)</text>
<text x="120" y="451" text-anchor="end" class="label">BY</text>
<rect x="130" y="438" width="442.6" height="18" fill="#287c8e" />
<text x="578.6" y="451" class="value">5,516 (54.8%)</text>
<text x="120" y="479" text-anchor="end" class="label">ON</text>
<rect x="130" y="466" width="374.3" height="18" fill="#287c8e" />
<text x="510.3" y="479" class="value">4,665 (46.3%)</text>
<text x="120" y="507" text-anchor="end" class="label">ORDER</text>
<rect x="130" y="494" width="352.1" height="18" fill="#287c8e" />
<text x="488.1" y="507" class="value">4,388 (43.6%)</text>
<text x="120" y="535" text-anchor="end" class="label">KEY</text>
<rect x="130" y="522" width="308.8" height="18" fill="#287c8e" />
<text x="444.8" y="535" class="value">3,848 (38.2%)</text>
<text x="120" y="563" text-anchor="end" class="label">PRIMARY</text>
<rect x="130" y="550" width="303.6" height="18" fill="#287c8e" />
<text x="439.6" y="563" class="value">3,783 (37.6%)</text>
<text x="120" y="591" text-anchor="end" class="label">NULL</text>
<rect x="130" y="578" width="240.2" height="18" fill="#287c8e" />
<text x="376.2" y="591" class="value">2,994 (29.7%)</text>
<text x="120" y="619" text-anchor="end" class="label">AND</text>
<rect x="130" y="606" width="236.1" height="18" fill="#287c8e" />
<text x="372.1" y="619" class="value">2,943 (29.2%)</text>
<text x="120" y="647" text-anchor="end" class="label">JOIN</text>
<rect x="130" y="634" width="226.0" height="18" fill="#287c8e" />
<text x="362.0" y="647" class="value">2,816 (28.0%)</text>
<text x="120" y="675" text-anchor="end" class="label">UNION</text>
<rect x="130" y="662" width="189.4" height="18" fill="#287c8e" />
<text x="325.4" y="675" class="value">2,360 (23.4%)</text>
<text x="120" y="703" text-anchor="end" class="label">INDEX</text>
<rect x="130" y="690" width="186.2" height="18" fill="#287c8e" />
<text x="322.2" y="703" class="value">2,321 (23.1%)</text>
<text x="120" y="731" text-anchor="end" class="label">OVER</text>
<rect x="130" y="718" width="166.9" height="18" fill="#287c8e" />
<text x="302.9" y="731" class="value">2,080 (20.7%)</text>
<text x="120" y="759" text-anchor="end" class="label">ALTER</text>
<rect x="130" y="746" width="165.3" height="18" fill="#287c8e" />
<text x="301.3" y="759" class="value">2,060 (20.5%)</text>
<text x="120" y="787" text-anchor="end" class="label">DISTINCT</text>
<rect x="130" y="774" width="162.2" height="18" fill="#287c8e" />
<text x="298.2" y="787" class="value">2,022 (20.1%)</text>
<text x="120" y="815" text-anchor="end" class="label">GROUP</text>
<rect x="130" y="802" width="152.2" height="18" fill="#287c8e" />
<text x="288.2" y="815" class="value">1,897 (18.8%)</text>
<text x="120" y="843" text-anchor="end" class="label">ALL</text>
<rect x="130" y="830" width="148.8" height="18" fill="#287c8e" />
<text x="284.8" y="843" class="value">1,855 (18.4%)</text>
<text x="120" y="871" text-anchor="end" class="label">UPDATE</text>
<rect x="130" y="858" width="141.7" height="18" fill="#287c8e" />
<text x="277.7" y="871" class="value">1,766 (17.5%)</text>
<text x="120" y="899" text-anchor="end" class="label">SET</text>
<rect x="130" y="886" width="140.3" height="18" fill="#287c8e" />
<text x="276.3" y="899" class="value">1,749 (17.4%)</text>
</svg>