<svg xmlns="http://www.w3.org/2000/svg" width="1100" height="960" viewBox="0 0 1100 960">
<style>
text { font-family: Arial, sans-serif; fill: #24292f; }
.title { font-size: 20px; font-weight: 700; }
.label { font-size: 12px; }
.value { font-size: 11px; }
.axis { stroke: #8c959f; stroke-width: 1; }
.grid { stroke: #d8dee4; stroke-width: 1; }
</style>
<text x="550.0" y="32" text-anchor="middle" class="title">Top 30 SQLite Keywords by Generated Query Coverage (n=10,000)</text>
<line x1="130" y1="60" x2="130" y2="915" class="axis" />
<line x1="130.0" y1="60" x2="130.0" y2="915" class="grid" />
<text x="130.0" y="940" text-anchor="middle" class="value">0</text>
<line x1="290.0" y1="60" x2="290.0" y2="915" class="grid" />
<text x="290.0" y="940" text-anchor="middle" class="value">1,991</text>
<line x1="450.0" y1="60" x2="450.0" y2="915" class="grid" />
<text x="450.0" y="940" text-anchor="middle" class="value">3,982</text>
<line x1="610.0" y1="60" x2="610.0" y2="915" class="grid" />
<text x="610.0" y="940" text-anchor="middle" class="value">5,973</text>
<line x1="770.0" y1="60" x2="770.0" y2="915" class="grid" />
<text x="770.0" y="940" text-anchor="middle" class="value">7,964</text>
<line x1="930.0" y1="60" x2="930.0" y2="915" class="grid" />
<text x="930.0" y="940" text-anchor="middle" class="value">9,955</text>
<text x="120" y="87" text-anchor="end" class="label">TABLE</text>
<rect x="130" y="74" width="800.0" height="18" fill="#287c8e" />
<text x="936.0" y="87" class="value">9,955 (99.6%)</text>
<text x="120" y="115" text-anchor="end" class="label">CREATE</text>
<rect x="130" y="102" width="799.5" height="18" fill="#287c8e" />
<text x="935.5" y="115" class="value">9,949 (99.5%)</text>
<text x="120" y="143" text-anchor="end" class="label">EXISTS</text>
<rect x="130" y="130" width="700.4" height="18" fill="#287c8e" />
<text x="836.4" y="143" class="value">8,715 (87.2%)</text>
<text x="120" y="171" text-anchor="end" class="label">NOT</text>
<rect x="130" y="158" width="696.2" height="18" fill="#287c8e" />
<text x="832.2" y="171" class="value">8,663 (86.6%)</text>
<text x="120" y="199" text-anchor="end" class="label">INSERT</text>
<rect x="130" y="186" width="695.9" height="18" fill="#287c8e" />
<text x="831.9" y="199" class="value">8,659 (86.6%)</text>
<text x="120" y="227" text-anchor="end" class="label">VALUES</text>
<rect x="130" y="214" width="695.6" height="18" fill="#287c8e" />
<text x="831.6" y="227" class="value">8,656 (86.6%)</text>
<text x="120" y="255" text-anchor="end" class="label">IF</text>
<rect x="130" y="242" width="695.4" height="18" fill="#287c8e" />
<text x="831.4" y="255" class="value">8,654 (86.5%)</text>
<text x="120" y="283" text-anchor="end" class="label">INTO</text>
<rect x="130" y="270" width="686.4" height="18" fill="#287c8e" />
<text x="822.4" y="283" class="value">8,541 (85.4%)</text>
<text x="120" y="311" text-anchor="end" class="label">FROM</text>
<rect x="130" y="298" width="663.0" height="18" fill="#287c8e" />
<text x="799.0" y="311" class="value">8,250 (82.5%)</text>
<text x="120" y="339" text-anchor="end" class="label">AS</text>
<rect x="130" y="326" width="660.6" height="18" fill="#287c8e" />
<text x="796.6" y="339" class="value">8,220 (82.2%)</text>
<text x="120" y="367" text-anchor="end" class="label">SELECT</text>
<rect x="130" y="354" width="643.4" height="18" fill="#287c8e" />
<text x="779.4" y="367" class="value">8,006 (80.1%)</text>
<text x="120" y="395" text-anchor="end" class="label">CAST</text>
<rect x="130" y="382" width="549.7" height="18" fill="#287c8e" />
<text x="685.7" y="395" class="value">6,840 (68.4%)</text>
<text x="120" y="423" text-anchor="end" class="label">WHERE</text>
<rect x="130" y="410" width="529.1" height="18" fill="#287c8e" />
<text x="665.1" y="423" class="value">6,584 (65.8%)</text>
<text x="120" y="451" text-anchor="end" class="label">ON</text>
<rect x="130" y="438" width="423.7" height="18" fill="#287c8e" />
<text x="559.7" y="451" class="value">5,272 (52.7%)</text>
<text x="120" y="479" text-anchor="end" class="label">BY</text>
<rect x="130" y="466" width="367.8" height="18" fill="#287c8e" />
<text x="503.8" y="479" class="value">4,577 (45.8%)</text>
<text x="120" y="507" text-anchor="end" class="label">KEY</text>
<rect x="130" y="494" width="354.8" height="18" fill="#287c8e" />
<text x="490.8" y="507" class="value">4,415 (44.1%)</text>
<text x="120" y="535" text-anchor="end" class="label">PRIMARY</text>
<rect x="130" y="522" width="335.8" height="18" fill="#287c8e" />
<text x="471.8" y="535" class="value">4,178 (41.8%)</text>
<text x="120" y="563" text-anchor="end" class="label">ORDER</text>
<rect x="130" y="550" width="267.8" height="18" fill="#287c8e" />
<text x="403.8" y="563" class="value">3,333 (33.3%)</text>
<text x="120" y="591" text-anchor="end" class="label">JOIN</text>
<rect x="130" y="578" width="224.0" height="18" fill="#287c8e" />
<text x="360.0" y="591" class="value">2,787 (27.9%)</text>
<text x="120" y="619" text-anchor="end" class="label">INDEX</text>
<rect x="130" y="606" width="223.5" height="18" fill="#287c8e" />
<text x="359.5" y="619" class="value">2,781 (27.8%)</text>
<text x="120" y="647" text-anchor="end" class="label">ALTER</text>
<rect x="130" y="634" width="223.1" height="18" fill="#287c8e" />
<text x="359.1" y="647" class="value">2,776 (27.8%)</text>
<text x="120" y="675" text-anchor="end" class="label">AND</text>
<rect x="130" y="662" width="193.3" height="18" fill="#287c8e" />
<text x="329.3" y="675" class="value">2,405 (24.1%)</text>
<text x="120" y="703" text-anchor="end" class="label">NULL</text>
<rect x="130" y="690" width="176.1" height="18" fill="#287c8e" />
<text x="312.1" y="703" class="value">2,191 (21.9%)</text>
<text x="120" y="731" text-anchor="end" class="label">GROUP</text>
<rect x="130" y="718" width="174.0" height="18" fill="#287c8e" />
<text x="310.0" y="731" class="value">2,165 (21.6%)</text>
<text x="120" y="759" text-anchor="end" class="label">COLUMN</text>
<rect x="130" y="746" width="151.2" height="18" fill="#287c8e" />
<text x="287.2" y="759" class="value">1,881 (18.8%)</text>
<text x="120" y="787" text-anchor="end" class="label">DROP</text>
<rect x="130" y="774" width="143.4" height="18" fill="#287c8e" />
<text x="279.4" y="787" class="value">1,784 (17.8%)</text>
<text x="120" y="815" text-anchor="end" class="label">UNION</text>
<rect x="130" y="802" width="133.6" height="18" fill="#287c8e" />
<text x="269.6" y="815" class="value">1,662 (16.6%)</text>
<text x="120" y="843" text-anchor="end" class="label">LEFT</text>
<rect x="130" y="830" width="114.3" height="18" fill="#287c8e" />
<text x="250.3" y="843" class="value">1,422 (14.2%)</text>
<text x="120" y="871" text-anchor="end" class="label">ADD</text>
<rect x="130" y="858" width="113.5" height="18" fill="#287c8e" />
<text x="249.5" y="871" class="value">1,412 (14.1%)</text>
<text x="120" y="899" text-anchor="end" class="label">ALL</text>
<rect x="130" y="886" width="112.9" height="18" fill="#287c8e" />
<text x="248.9" y="899" class="value">1,405 (14.1%)</text>
</svg>